# xmcd
#
# Track frame offsets:
#	150
#	17497
#	31510
#	48355
#	63290
#
# Disc length: 1021 seconds
#
# Revision: 1
# Processed by: cddbd v1.5.1PL2 Copyright (c) Steve Scherf et al.
# Submitted via: audiograbber 1.83.01
#
DISCID=2d03fb05
DTITLE=Shanley Del - Red Roses
DYEAR=1993
DGENRE=Country
TTITLE0=Red Roses
TTITLE1=Give Me One Good Reason
TTITLE2=Gone But Not Forgotten
TTITLE3=Together Alone
TTITLE4=Dream Rider
EXTD=
EXTT0=
EXTT1=
EXTT2=
EXTT3=
EXTT4=
PLAYORDER=
